<svg xmlns="http://www.w3.org/2000/svg" width="22.402" height="22.402" viewBox="0 0 22.402 22.402">
  <g id="user" transform="translate(0.001)">
    <path id="Path_48" data-name="Path 48" d="M132.017,335.266a5.679,5.679,0,0,0-5.673,5.673c0,.181.009.36.026.536a11.229,11.229,0,0,0,11.294,0c.017-.177.026-.355.026-.536A5.679,5.679,0,0,0,132.017,335.266Zm0,0" transform="translate(-120.817 -320.597)" fill="#2e43d3"/>
    <path id="Path_49" data-name="Path 49" d="M19.12,3.281A11.2,11.2,0,0,0,3.28,19.121a11.354,11.354,0,0,0,.945.844,7,7,0,0,1,4.321-6.085,4.874,4.874,0,1,1,5.309,0,7,7,0,0,1,4.321,6.085,11.385,11.385,0,0,0,.945-.844,11.2,11.2,0,0,0,0-15.84Zm0,0" fill="#2e43d3"/>
    <path id="Path_50" data-name="Path 50" d="M181.724,146.03a3.561,3.561,0,1,0-3.561,3.561A3.565,3.565,0,0,0,181.724,146.03Zm0,0" transform="translate(-166.962 -136.235)" fill="#2e43d3"/>
  </g>
</svg>
