<svg xmlns="http://www.w3.org/2000/svg" width="15" height="25" viewBox="0 0 15 25">
  <g id="blood-drop" transform="translate(-95.802 0)">
    <path id="Path_46" data-name="Path 46" d="M103.739.248a.507.507,0,0,0-.719-.16.532.532,0,0,0-.154.16C102.577.787,95.8,13.486,95.8,17.182a7.506,7.506,0,1,0,15,0C110.8,13.486,104.027.787,103.739.248Z" transform="translate(0 0)" fill="#d32f2f"/>
    <path id="Path_47" data-name="Path 47" d="M164.163,345.783a4.361,4.361,0,0,1-4.361-4.361.485.485,0,0,1,.969,0,3.392,3.392,0,0,0,3.392,3.392.485.485,0,1,1,0,.969Z" transform="translate(-60.954 -323.69)" fill="#e57373"/>
  </g>
</svg>
