<svg xmlns="http://www.w3.org/2000/svg" width="15.157" height="23.657" viewBox="0 0 15.157 23.657">
  <g id="Group_43" data-name="Group 43" transform="translate(-27 -389.059)">
    <path id="Path_51" data-name="Path 51" d="M15.157,64.578a7.579,7.579,0,1,0-8.441,7.5V76.05H4.755a.892.892,0,0,0,0,1.783H6.717v1.962a.892.892,0,0,0,1.783,0V77.833h1.962a.892.892,0,0,0,0-1.783H8.5V72.074A7.559,7.559,0,0,0,15.157,64.578ZM7.608,68.323a3.745,3.745,0,1,1,3.745-3.745A3.749,3.749,0,0,1,7.608,68.323Z" transform="translate(27 332.03)" fill="#ff6378"/>
    <path id="Path_52" data-name="Path 52" d="M128.892,72.074V76.05h1.962a.892.892,0,0,1,0,1.783h-1.962v1.962a.892.892,0,0,1-.892.892V68.323a3.745,3.745,0,1,0,0-7.49v-3.8a7.549,7.549,0,0,1,.892,15.045Z" transform="translate(-93.392 332.03)" fill="#ff1f3d"/>
  </g>
</svg>
