<svg xmlns="http://www.w3.org/2000/svg" width="15.755" height="22.912" viewBox="0 0 15.755 22.912">
  <g id="pin" transform="translate(-79.968 0)">
    <path id="Path_56" data-name="Path 56" d="M94.628,3.923A7.775,7.775,0,0,0,88.021,0c-.117,0-.235,0-.353,0a7.775,7.775,0,0,0-6.607,3.922,7.977,7.977,0,0,0-.1,7.882l5.682,10.4.008.014a1.381,1.381,0,0,0,2.4,0l.008-.014,5.682-10.4a7.977,7.977,0,0,0-.1-7.882Zm-6.783,6.458A3.222,3.222,0,1,1,91.067,7.16,3.226,3.226,0,0,1,87.845,10.382Z" transform="translate(0 0)" fill="#ec5e5e"/>
  </g>
</svg>
