<svg xmlns="http://www.w3.org/2000/svg" width="25" height="25" viewBox="0 0 25 25">
  <g id="phone-call_1_" data-name="phone-call (1)" transform="translate(107 -51)">
    <g id="Group_38" data-name="Group 38" transform="translate(-107 51)">
      <path id="Path_55" data-name="Path 55" d="M21.337,3.659A12.5,12.5,0,1,0,25,12.5,12.5,12.5,0,0,0,21.337,3.659ZM18.93,17.412l0,0v0l-.633.629a3.333,3.333,0,0,1-3.146.9A11.076,11.076,0,0,1,11.933,17.5,14.862,14.862,0,0,1,9.4,15.451a14.976,14.976,0,0,1-1.9-2.3,11.665,11.665,0,0,1-1.425-2.883,3.333,3.333,0,0,1,.833-3.4l.742-.742a.529.529,0,0,1,.748,0l0,0,2.342,2.342a.529.529,0,0,1,0,.748l0,0L9.366,10.589a1.121,1.121,0,0,0-.117,1.458A16.081,16.081,0,0,0,10.9,13.968a15.982,15.982,0,0,0,2.167,1.821,1.129,1.129,0,0,0,1.442-.125l1.329-1.35a.529.529,0,0,1,.748,0l0,0,2.346,2.35A.529.529,0,0,1,18.93,17.412Z" transform="translate(0 0)" fill="#0db322"/>
    </g>
  </g>
</svg>
